<?xml version="1.0" encoding="UTF-8"?>
<svg id="Layer_2" data-name="Layer 2" xmlns="http://www.w3.org/2000/svg" xmlns:xlink="http://www.w3.org/1999/xlink" viewBox="0 0 112.38 112.38">
  <defs>
    <style>
      .cls-1 {
        fill: #5f9e57;
      }

      .cls-2 {
        fill: none;
      }

      .cls-3 {
        fill: #051524;
      }

      .cls-4 {
        clip-path: url(#clippath);
      }
    </style>
    <clipPath id="clippath">
      <rect class="cls-2" width="112.38" height="112.38"/>
    </clipPath>
  </defs>
  <g id="Layer_4" data-name="Layer 4">
    <g class="cls-4">
      <rect class="cls-1" x="-58.4" y="-57.26" width="229.18" height="226.69"/>
    </g>
  </g>
  <g id="Layer_2-2" data-name="Layer 2">
    <path class="cls-3" d="M19.65,49.94c.77-5.04,2.31-9.71,4.97-13.99,5.24-8.43,12.59-14.05,22.2-16.62,8.93-2.39,17.58-1.44,25.81,2.66,8.2,4.09,14.07,10.48,17.66,18.94,1.71,4.02,2.6,8.22,2.79,12.58.37,8.35-1.77,16.01-6.53,22.88-3.17,4.58-7.23,8.22-12.06,11.02-6,3.48-12.48,5.13-19.38,4.87-11.15-.42-20.34-4.97-27.48-13.57-4.73-5.7-7.23-12.35-8.15-19.63-.38-3.02-.26-6.04.17-9.13M78.64,57.46c-.41.36-.92.57-1.44.65-.83.12-1.08.6-1.12,1.37-.14,3-.75,5.93-1.48,8.83-.18.72-.47,1.44-.42,2.22.15.03.25.07.34.05,4.17-.95,8.03-2.54,11.36-5.32,1.41-1.17,2.03-2.56,1.65-4.3-.37-1.7-.05-3.29.33-4.92.38-1.65.98-3.31.99-4.97.01-2.22-.53-4.42-1.31-6.52-.12-.32-.16-.74-.63-.79-.06.04-.15.06-.17.11-.17.36-.32.73-.47,1.1-1.28,3.14-3.05,5.9-5.9,7.86-.46.32-.63.7-.54,1.28.19,1.25-.03,2.39-1.18,3.35M55.04,68.59c0-2.83-.03-5.65.02-8.48.02-.91-.34-1.28-1.19-1.29-.5-.01-1-.03-1.5-.04-2.76-.04-5.52-.19-8.21-.8-1.61-.36-2.7-.06-3.48,1.38-.12.23-.32.42-.5.62-.28.32-.38.67-.33,1.1.34,3.21,1,6.35,1.88,9.45.2.7.58,1.01,1.31,1.13,2.7.42,5.42.53,8.13.75.59.05,1.37.28,1.74-.11.95-1,2.67-1.6,2.12-3.72M68.35,41.97c-2.48.66-4.85,1.64-7.2,2.66-.73.32-1.3.64-1.33,1.62-.02.76-.65,1.35-1.08,1.99-.54.8-1.19,1.63-.67,2.72.05.11.09.28.03.37-.62,1.02-.32,2.15-.36,3.22-.05,1.32.16,1.53,1.47,1.52,4.55-.04,9-.76,13.36-2.05.7-.21,1.06-.66,1.01-1.4-.06-.76-.11-1.52-.19-2.28-.34-2.88-.98-5.69-1.78-8.48-.13-.47-.38-.66-.88-.51-.73.21-1.48.38-2.37.63M34.49,65.23c.69-1.29,1.45-2.54,2.31-3.72.22-.3.44-.59.43-.98-.02-1.03-.04-2.06-.06-3.09-.01-.76-.38-1.18-1.14-1.39-3.08-.85-5.84-2.36-8.4-4.25-.26-.19-.49-.46-.91-.42-.07.12-.18.25-.23.4-1.42,3.56-1.9,7.3-2.12,11.09-.03.49.25.8.56,1.12,2,2.06,4.41,3.5,7.01,4.67.69.31,1.02.09,1.28-.57.36-.93.81-1.82,1.28-2.86M68.04,82.38c-1.03,1.22-2.06,2.44-3.08,3.66-.18.22-.5.42-.33.76.19.37.57.28.9.24.99-.13,1.93-.48,2.86-.83,4.99-1.88,9.12-5.03,12.7-8.9,2.12-2.3,4-4.8,5.12-7.78.15-.4.47-.82.19-1.3-.7.06-.76.07-1.23.35-3.54,2.16-7.3,3.8-11.37,4.69-.6.13-.95.43-1.2,1.03-1.19,2.82-2.47,5.6-4.56,8.07M53.65,43.44c.27-.24.52-.53.83-.71.42-.25.66-.55.56-1.05-.13-.63-.64-.47-1.04-.48-3.51-.07-6.94-.62-10.29-1.62-.78-.23-1.06,0-1.31.69-1.52,4.22-2.22,8.6-2.65,13.04-.08.77.23,1.12.97,1.32,1.06.3,1.93.25,2.64-.71.29-.39.72-.68,1.09-1.02,2.34-2.15,4.99-3.87,7.7-5.5.56-.34.89-.66.74-1.42-.17-.87.11-1.71.78-2.54M30.8,42.93c-.91,1.51-1.68,3.1-2.44,4.68-.34.69-.23,1.14.34,1.63,2.24,1.92,4.85,3.12,7.59,4.1.71.26.88-.12.93-.72.09-1.19.16-2.38.32-3.57.45-3.37,1.24-6.65,2.47-9.82.2-.53.08-.85-.48-1.09-1.16-.49-2.31-1.03-3.43-1.61-.46-.24-.73-.17-1.01.22-1.43,2-2.94,3.95-4.29,6.18M59.73,23.87c-.59.17-1.2.38-1.33,1.05-.32,1.75-.92,3.55-.77,5.27.2,2.26.4,4.47.11,6.73-.15,1.2.41,1.65,1.61,1.53,1.65-.17,3.31-.33,4.94-.59,1.76-.28,3.49-.7,5.12-1.28.08-.4-.07-.63-.17-.87-1.24-2.83-2.98-5.34-4.95-7.69-1.3-1.54-2.66-3.06-4.57-4.15M55.03,24.86c-.08-.76.15-1.56-.25-2.48-4.96,3.87-8.49,8.64-10.81,14.29.41.44.86.47,1.27.58,2.48.67,5.02.92,7.57,1.14,2.34.2,2.39.2,2.37-2.18-.03-3.72-.1-7.44-.15-11.36M33.72,72.32c-.51,1.69-.66,3.44-.78,5.19-.06.92.27,1.56.93,2.18,2.81,2.65,6.01,4.73,9.54,6.26,1.95.85,3.96,1.56,6.32,1.85-4.3-3.74-7.26-8.14-9.18-13.24-.14-.36-.33-.68-.73-.75-2.04-.35-3.95-1.16-6.1-1.49M57.79,86.57c.93.72,1.67.73,2.9-.09,4.3-2.89,7.24-6.86,9.18-11.62.08-.19.14-.38,0-.57-.17-.15-.37-.13-.57-.12-2.31.23-4.62.55-6.94.66-1.57.08-3.03.16-3.89,1.74-.06.11-.2.17-.31.24-.3.2-.45.47-.45.84,0,2.92,0,5.85.07,8.93M50.35,74.96c-2.32-.17-4.65-.35-6.94-.52-.17.5.06.78.18,1.08.84,2.08,1.93,4.02,3.26,5.81,1.74,2.33,3.69,4.45,6.17,6.03.57.36,1.12.81,2.02.71,0-3.45,0-6.87,0-10.29,0-.19-.04-.45-.16-.56-1.28-1.06-2.3-2.66-4.53-2.26M64.37,66.13c-1.58,1.56-3.17,3.13-4.52,4.9-.26.34-.68.65-.45,1.13.21.45.71.29,1.08.27,3.35-.15,6.68-.5,10-1.02.6-.1.92-.43,1.08-1,.94-3.19,1.67-6.42,2.01-9.73.06-.6.36-1.21,0-2-3.24,2.29-6.31,4.63-9.2,7.45M75.62,28.27c-3.8-2.78-8.03-4.63-12.63-5.68-.15.61,0,1.02.38,1.41,1.08,1.13,2.12,2.29,3.19,3.43,1.95,2.09,3.36,4.53,4.68,7.04.71,1.34.71,1.35,2.11.71,1.67-.76,3.26-1.65,4.68-2.83.4-.33.87-.62,1.05-1.19-.94-1.16-2.26-1.84-3.46-2.9M82.37,47.77c1.01-1.35,1.75-2.82,2.17-4.46.37-1.45.27-1.61-1.14-2.08-2.85-.93-5.76-.92-8.69-.63-.73.07-.81.44-.62,1.11.86,2.94,1.57,5.91,1.82,8.97.03.31.05.68.39.74.79.12,1.56.5,2.38-.11,1.34-1,2.58-2.1,3.7-3.53M72.87,56.59c-4.43,1.42-9,2-13.63,2.19-1.33.05-1.52.22-1.52,1.51,0,2.99-.01,5.99,0,8.98,0,.35-.12.74.2,1.03.52-.24.52-.24.84-.62,3.85-4.54,8.28-8.43,13.19-11.8.41-.28.83-.56,1.22-.87.33-.26.28-.44-.29-.41M48.23,52.19c-1.16.95-2.45,1.77-3.35,2.98.18.28.39.27.58.31,2.95.53,5.94.52,8.92.71.66.04.67-.37.68-.83,0-1.89.04-3.78.02-5.67-.01-1.2-.65-1.55-1.68-.95-1.74,1.03-3.44,2.13-5.16,3.45M75.51,36.93c-.57.27-1.15.53-1.71.82-.32.16-.87.14-.73.74.15.61.6.58,1.1.53,3.36-.31,6.71-.43,9.94.8.23.09.48.27.74.05.23-1.39-2.54-5.98-4.14-6.81-1.54,1.43-3.18,2.78-5.21,3.86M32.24,36.99c1.58-2.19,1.81-1.61-.61-3.47-.05-.04-.13-.03-.2-.05-.44.2-.68.61-.97.97-2.17,2.73-3.86,5.73-5.1,8.99-.45,1.2-.13,2.17,1.09,2.9,1.64-3.24,3.57-6.3,5.79-9.35M44.31,27.49c-2.43,2.02-4.9,4.01-6.79,6.6.87.79,1.87,1.02,2.73,1.51.8.46,1.2.22,1.6-.59,1.54-3.14,3.4-6.09,5.68-8.75.73-.85,1.53-1.64,2.3-2.46-1.97.99-3.71,2.27-5.52,3.68M39.77,26.35c-2.07,1.27-4.08,2.63-5.84,4.33-.22.21-.58.39-.43.82.36,1.04,2.06,1.41,2.81.61,2.25-2.42,4.73-4.58,7.39-6.54.94-.69,1.89-1.35,2.83-2.03-2.41.49-4.52,1.61-6.76,2.81M31.28,74.65c.17-.81.34-1.62.5-2.43.07-.36.13-.74-.29-.96-1.89-1-3.84-1.89-5.66-3.08,1.19,3.09,2.79,5.89,5.05,8.4.38-.63.3-1.21.39-1.92M36.74,64.87c-.67,1.3-1.36,2.58-1.87,3.96-.11.29-.4.69.01.88,1.29.57,2.63.96,4.26,1.09-.52-2.42-1-4.65-1.49-6.9-.54.18-.64.56-.92.97M62.36,40.8c-.89.08-1.79.13-2.67.24-.37.04-.89,0-.96.52-.08.58-.1,1.22.35,1.69.43.45.88.05,1.28-.12,2.2-.93,4.39-1.88,6.7-2.51.93-.25,1.86-.48,2.78-.77.28-.09.79-.06.65-.76-2.66.61-5.26,1.38-8.13,1.71M24.36,48.47c-.46-.56-.51-.04-.58.24-.47,2.15-.66,4.33-.64,6.6.55-1.75,1.02-3.43,1.62-5.08.25-.69.22-1.2-.4-1.77Z"/>
  </g>
</svg>