<svg xmlns="http://www.w3.org/2000/svg" viewBox="0 0 671.38 185.01" xmlns:v="https://vecta.io/nano"><path d="M36.62 159.78c-7.14 0-13.47-1.27-18.99-3.8s-9.83-6.26-12.95-11.19S0 133.87 0 126.82v-3.39h14.51v3.39c0 6.69 2.01 11.71 6.04 15.05 4.02 3.35 9.38 5.02 16.07 5.02s11.89-1.42 15.33-4.27 5.15-6.53 5.15-11.05c0-2.98-.81-5.42-2.44-7.32s-3.93-3.41-6.92-4.54c-2.98-1.13-6.56-2.19-10.71-3.19l-5.02-1.22c-6.06-1.45-11.33-3.23-15.8-5.36-4.48-2.12-7.93-4.95-10.38-8.48S2.17 93.41 2.17 87.9s1.38-10.4 4.14-14.38 6.58-7.05 11.46-9.22 10.62-3.26 17.22-3.26 12.5 1.13 17.7 3.39 9.29 5.61 12.27 10.04 4.48 9.99 4.48 16.68v4.88H54.93v-4.88c0-4.07-.84-7.37-2.51-9.9s-4-4.38-6.98-5.56c-2.98-1.17-6.47-1.76-10.44-1.76-5.79 0-10.29 1.2-13.49 3.59-3.21 2.4-4.81 5.72-4.81 9.97 0 2.9.7 5.27 2.1 7.12s3.46 3.37 6.17 4.54c2.71 1.18 6.1 2.22 10.17 3.12l5.02 1.22c6.15 1.36 11.57 3.1 16.28 5.22 4.7 2.13 8.41 5 11.12 8.61 2.71 3.62 4.07 8.27 4.07 13.97s-1.42 10.67-4.27 14.92-6.9 7.57-12.14 9.97c-5.24 2.39-11.44 3.59-18.58 3.59zm50.72 25.23V91.02h13.7v9.63h2.17c1.72-2.98 4.32-5.65 7.8-8s8.48-3.53 14.99-3.53c5.6 0 10.74 1.36 15.39 4.07 4.66 2.71 8.41 6.62 11.26 11.73s4.27 11.28 4.27 18.51v2.03c0 7.24-1.4 13.41-4.2 18.51-2.8 5.11-6.56 9.02-11.26 11.73s-9.86 4.07-15.46 4.07c-4.34 0-8-.54-10.99-1.63s-5.38-2.46-7.19-4.14c-1.81-1.67-3.25-3.41-4.34-5.22h-2.17v36.21H87.34zm34.59-37.43c6.15 0 11.17-1.94 15.05-5.83 3.89-3.89 5.83-9.45 5.83-16.68v-1.22c0-7.14-1.97-12.66-5.9-16.55s-8.93-5.83-14.99-5.83-10.92 1.95-14.85 5.83c-3.93 3.89-5.9 9.4-5.9 16.55v1.22c0 7.23 1.97 12.79 5.9 16.68s8.88 5.83 14.85 5.83zm73.1 12.2c-4.79 0-9.07-.81-12.82-2.44s-6.74-4.02-8.95-7.19c-2.22-3.16-3.32-7.01-3.32-11.53s1.11-8.43 3.32-11.46 5.24-5.31 9.09-6.85c3.84-1.54 8.21-2.31 13.09-2.31h20.34v-4.34c0-3.89-1.18-7.01-3.53-9.36s-5.97-3.53-10.85-3.53-8.46 1.13-10.99 3.39-4.2 5.2-5.02 8.82l-13.02-4.2c1.08-3.62 2.83-6.89 5.22-9.83 2.4-2.94 5.58-5.31 9.56-7.12s8.77-2.71 14.38-2.71c8.68 0 15.51 2.22 20.48 6.65s7.46 10.71 7.46 18.85v27.53c0 2.71 1.27 4.07 3.8 4.07h5.7v11.66h-10.44c-3.17 0-5.74-.81-7.73-2.44s-2.98-3.84-2.98-6.65v-.41h-2.03c-.72 1.36-1.81 2.94-3.25 4.75-1.45 1.81-3.57 3.37-6.37 4.68s-6.51 1.97-11.12 1.97zm2.03-11.52c5.61 0 10.13-1.6 13.56-4.81 3.44-3.21 5.15-7.62 5.15-13.22v-1.36h-19.53c-3.71 0-6.69.79-8.95 2.37s-3.39 3.91-3.39 6.98 1.17 5.52 3.53 7.32c2.35 1.81 5.56 2.71 9.63 2.71zm75.96 9.63c-4.07 0-7.3-1.22-9.7-3.66s-3.59-5.7-3.59-9.76v-41.64h-18.45v-11.8h18.45V68.92h13.97v22.11h19.94v11.8H273.7v39.2c0 2.71 1.27 4.07 3.8 4.07h13.97v11.8h-18.45zm37.02 0V91.03h13.97v66.86h-13.97zm55.47 1.89c-4.79 0-9.07-.81-12.82-2.44s-6.74-4.02-8.95-7.19c-2.22-3.16-3.32-7.01-3.32-11.53s1.11-8.43 3.32-11.46 5.24-5.31 9.09-6.85c3.84-1.54 8.21-2.31 13.09-2.31h20.34v-4.34c0-3.89-1.18-7.01-3.53-9.36s-5.97-3.53-10.85-3.53-8.46 1.13-10.99 3.39-4.2 5.2-5.02 8.82l-13.02-4.2c1.08-3.62 2.83-6.89 5.22-9.83 2.4-2.94 5.58-5.31 9.56-7.12s8.77-2.71 14.38-2.71c8.68 0 15.51 2.22 20.48 6.65s7.46 10.71 7.46 18.85v27.53c0 2.71 1.27 4.07 3.8 4.07h5.7v11.66h-10.44c-3.17 0-5.74-.81-7.73-2.44s-2.98-3.84-2.98-6.65v-.41h-2.03c-.72 1.36-1.81 2.94-3.25 4.75-1.45 1.81-3.57 3.37-6.37 4.68s-6.51 1.97-11.12 1.97zm2.04-11.52c5.61 0 10.13-1.6 13.56-4.81 3.44-3.21 5.15-7.62 5.15-13.22v-1.36h-19.53c-3.71 0-6.69.79-8.95 2.37s-3.39 3.91-3.39 6.98 1.17 5.52 3.53 7.32c2.35 1.81 5.56 2.71 9.63 2.71zm55.47 9.63V62.95h13.97v94.94h-13.97z" fill="#329177"/><g fill="#5f9e57"><path d="M468.89,150.25l3.5-2.88c3.82,5.06,8.41,8.02,15.5,8.02,8.41,0,13.08-4.21,13.08-11.37,0-6.7-4.05-9.27-10.98-10.75l-4.83-1.01c-10.28-2.1-14.8-7.01-14.8-14.56,0-9.5,7.01-14.41,17.44-14.41,8.1,0,13.63,3.12,17.21,8.33l-3.5,2.57c-3.04-4.28-7.4-6.78-13.94-6.78-7.79,0-12.62,3.43-12.62,10.12s4.36,8.96,11.14,10.36l4.83,1.01c10.82,2.34,14.64,7.4,14.64,14.87,0,9.89-6.78,15.73-17.83,15.73-8.88,0-14.64-3.66-18.85-9.27Z"/><use href="#B"/><path d="M559.39 158.58v-39.87h4.44v6.31h.23c1.79-4.13 5.37-7.24 11.76-7.24 8.49 0 13.47 5.45 13.47 15.19v25.62h-4.44v-24.84c0-8.1-3.58-11.99-10.2-11.99-5.61 0-10.82 2.88-10.82 8.8v28.04h-4.44zm39.8-6.7l3.27-2.57c3.27 4.28 7.09 6.39 12.38 6.39 6.07 0 9.58-2.73 9.58-7.55 0-4.21-2.41-6.62-8.18-7.48l-3.27-.55c-7.24-1.09-12.23-3.97-12.23-11.14s5.84-11.21 13.55-11.21c6.62 0 10.67 2.57 13.63 6.15l-2.96 2.73c-2.1-2.49-5.37-5.06-10.9-5.06s-9.03 2.65-9.03 7.16 2.88 6.39 8.57 7.32l3.19.47c8.1 1.25 11.92 4.75 11.92 11.14 0 7.4-5.37 11.84-14.17 11.84-6.93 0-11.76-2.73-15.34-7.63z"/><use href="#B" x="123.28"/><path d="M279.9 31.9c.77-5.04 2.31-9.71 4.97-13.99 5.24-8.43 12.59-14.05 22.2-16.62C316-1.1 324.65-.15 332.88 3.95c8.2 4.09 14.07 10.48 17.66 18.94 1.71 4.02 2.6 8.22 2.79 12.58.37 8.35-1.77 16.01-6.53 22.88-3.17 4.58-7.23 8.22-12.06 11.02-6 3.48-12.48 5.13-19.38 4.87-11.15-.42-20.34-4.97-27.48-13.57-4.73-5.7-7.23-12.35-8.15-19.63-.38-3.02-.26-6.04.17-9.13m59 7.51c-.41.36-.92.57-1.44.65-.83.12-1.08.6-1.12 1.37-.14 3-.75 5.93-1.48 8.83-.18.72-.47 1.44-.42 2.22.15.03.25.07.34.05 4.17-.95 8.03-2.54 11.36-5.32 1.41-1.17 2.03-2.56 1.65-4.3-.37-1.7-.05-3.29.33-4.92.38-1.65.98-3.31.99-4.97.01-2.22-.53-4.42-1.31-6.52-.12-.32-.16-.74-.63-.79-.06.04-.15.06-.17.11-.17.36-.32.73-.47 1.1-1.28 3.14-3.05 5.9-5.9 7.86-.46.32-.63.7-.54 1.28.19 1.25-.03 2.39-1.18 3.35m-23.62 11.14l.02-8.48c.02-.91-.34-1.28-1.19-1.29l-1.5-.04c-2.76-.04-5.52-.19-8.21-.8-1.61-.36-2.7-.06-3.48 1.38-.12.23-.32.42-.5.62-.28.32-.38.67-.33 1.1.34 3.21 1 6.35 1.88 9.45.2.7.58 1.01 1.31 1.13 2.7.42 5.42.53 8.13.75.59.05 1.37.28 1.74-.11.95-1 2.67-1.6 2.12-3.72m13.32-26.62c-2.48.66-4.85 1.64-7.2 2.66-.73.32-1.3.64-1.33 1.62-.02.76-.65 1.35-1.08 1.99-.54.8-1.19 1.63-.67 2.72.05.11.09.28.03.37-.62 1.02-.32 2.15-.36 3.22-.05 1.32.16 1.53 1.47 1.52 4.55-.04 9-.76 13.36-2.05.7-.21 1.06-.66 1.01-1.4l-.19-2.28c-.34-2.88-.98-5.69-1.78-8.48-.13-.47-.38-.66-.88-.51-.73.21-1.48.38-2.37.63m-33.87 23.25c.69-1.29 1.45-2.54 2.31-3.72.22-.3.44-.59.43-.98l-.06-3.09c-.01-.76-.38-1.18-1.14-1.39-3.08-.85-5.84-2.36-8.4-4.25-.26-.19-.49-.46-.91-.42-.07.12-.18.25-.23.4-1.42 3.56-1.9 7.3-2.12 11.09-.03.49.25.8.56 1.12 2 2.06 4.41 3.5 7.01 4.67.69.31 1.02.09 1.28-.57.36-.93.81-1.82 1.28-2.86m33.55 17.16l-3.08 3.66c-.18.22-.5.42-.33.76.19.37.57.28.9.24.99-.13 1.93-.48 2.86-.83 4.99-1.88 9.12-5.03 12.7-8.9 2.12-2.3 4-4.8 5.12-7.78.15-.4.47-.82.19-1.3-.7.06-.76.07-1.23.35-3.54 2.16-7.3 3.8-11.37 4.69-.6.13-.95.43-1.2 1.03-1.19 2.82-2.47 5.6-4.56 8.07m-14.4-38.93c.27-.24.52-.53.83-.71.42-.25.66-.55.56-1.05-.13-.63-.64-.47-1.04-.48a38.51 38.51 0 0 1-10.29-1.62c-.78-.23-1.06 0-1.31.69-1.52 4.22-2.22 8.6-2.65 13.04-.08.77.23 1.12.97 1.32 1.06.3 1.93.25 2.64-.71.29-.39.72-.68 1.09-1.02 2.34-2.15 4.99-3.87 7.7-5.5.56-.34.89-.66.74-1.42-.17-.87.11-1.71.78-2.54m-22.87-.52c-.91 1.51-1.68 3.1-2.44 4.68-.34.69-.23 1.14.34 1.63 2.24 1.92 4.85 3.12 7.59 4.1.71.26.88-.12.93-.72.09-1.19.16-2.38.32-3.57.45-3.37 1.24-6.65 2.47-9.82.2-.53.08-.85-.48-1.09a48.62 48.62 0 0 1-3.43-1.61c-.46-.24-.73-.17-1.01.22-1.43 2-2.94 3.95-4.29 6.18m28.93-19.05c-.59.17-1.2.38-1.33 1.05-.32 1.75-.92 3.55-.77 5.27.2 2.26.4 4.47.11 6.73-.15 1.2.41 1.65 1.61 1.53 1.65-.17 3.31-.33 4.94-.59 1.76-.28 3.49-.7 5.12-1.28.08-.4-.07-.63-.17-.87-1.24-2.83-2.98-5.34-4.95-7.69-1.3-1.54-2.66-3.06-4.57-4.15m-4.69.99c-.08-.76.15-1.56-.25-2.48-4.96 3.87-8.49 8.64-10.81 14.29.41.44.86.47 1.27.58 2.48.67 5.02.92 7.57 1.14 2.34.2 2.39.2 2.37-2.18l-.15-11.36m-21.3 47.47c-.51 1.69-.66 3.44-.78 5.19-.06.92.27 1.56.93 2.18 2.81 2.65 6.01 4.73 9.54 6.26 1.95.85 3.96 1.56 6.32 1.85-4.3-3.74-7.26-8.14-9.18-13.24-.14-.36-.33-.68-.73-.75-2.04-.35-3.95-1.16-6.1-1.49m24.06 14.25c.93.72 1.67.73 2.9-.09 4.3-2.89 7.24-6.86 9.18-11.62.08-.19.14-.38 0-.57-.17-.15-.37-.13-.57-.12-2.31.23-4.62.55-6.94.66-1.57.08-3.03.16-3.89 1.74-.06.11-.2.17-.31.24a.94.94 0 0 0-.45.84l.07 8.93m-7.43-11.63l-6.94-.52c-.17.5.06.78.18 1.08.84 2.08 1.93 4.02 3.26 5.81 1.74 2.33 3.69 4.45 6.17 6.03.57.36 1.12.81 2.02.71V59.74c0-.19-.04-.45-.16-.56-1.28-1.06-2.3-2.66-4.53-2.26m14.02-8.83c-1.58 1.56-3.17 3.13-4.52 4.9-.26.34-.68.65-.45 1.13.21.45.71.29 1.08.27 3.35-.15 6.68-.5 10-1.02.6-.1.92-.43 1.08-1 .94-3.19 1.67-6.42 2.01-9.73.06-.6.36-1.21 0-2-3.24 2.29-6.31 4.63-9.2 7.45m11.25-37.85c-3.8-2.78-8.03-4.63-12.63-5.68a1.35 1.35 0 0 0 .38 1.41l3.19 3.43c1.95 2.09 3.36 4.53 4.68 7.04.71 1.34.71 1.35 2.11.71 1.67-.76 3.26-1.65 4.68-2.83.4-.33.87-.62 1.05-1.19-.94-1.16-2.26-1.84-3.46-2.9m6.75 19.51c1.01-1.35 1.75-2.82 2.17-4.46.37-1.45.27-1.61-1.14-2.08-2.85-.93-5.76-.92-8.69-.63-.73.07-.81.44-.62 1.11.86 2.94 1.57 5.91 1.82 8.97.03.31.05.68.39.74.79.12 1.56.5 2.38-.11 1.34-1 2.58-2.1 3.7-3.53m-9.5 8.81c-4.43 1.42-9 2-13.63 2.19-1.33.05-1.52.22-1.52 1.51v8.98c0 .35-.12.74.2 1.03.52-.24.52-.24.84-.62 3.85-4.54 8.28-8.43 13.19-11.8.41-.28.83-.56 1.22-.87.33-.26.28-.44-.29-.41m-24.66-4.41c-1.16.95-2.45 1.77-3.35 2.98.18.28.39.27.58.31 2.95.53 5.94.52 8.92.71.66.04.67-.37.68-.83l.02-5.67c-.01-1.2-.65-1.55-1.68-.95-1.74 1.03-3.44 2.13-5.16 3.45m27.27-15.26c-.57.27-1.15.53-1.71.82-.32.16-.87.14-.73.74.15.61.6.58 1.1.53 3.36-.31 6.71-.43 9.94.8.23.09.48.27.74.05.23-1.39-2.54-5.98-4.14-6.81-1.54 1.43-3.18 2.78-5.21 3.86m-43.26.07c1.58-2.19 1.81-1.61-.61-3.47-.05-.04-.13-.03-.2-.05-.44.2-.68.61-.97.97-2.17 2.73-3.86 5.73-5.1 8.99-.45 1.2-.13 2.17 1.09 2.9 1.64-3.24 3.57-6.3 5.79-9.35m12.07-9.49c-2.43 2.02-4.9 4.01-6.79 6.6.87.79 1.87 1.02 2.73 1.51.8.46 1.2.22 1.6-.59 1.54-3.14 3.4-6.09 5.68-8.75.73-.85 1.53-1.64 2.3-2.46-1.97.99-3.71 2.27-5.52 3.68m-4.54-1.14c-2.07 1.27-4.08 2.63-5.84 4.33-.22.21-.58.39-.43.82.36 1.04 2.06 1.41 2.81.61 2.25-2.42 4.73-4.58 7.39-6.54l2.83-2.03c-2.41.49-4.52 1.61-6.76 2.81m-8.48 48.3l.5-2.43c.07-.36.13-.74-.29-.96-1.89-1-3.84-1.89-5.66-3.08 1.19 3.09 2.79 5.89 5.05 8.4.38-.63.3-1.21.39-1.92m5.46-9.78c-.67 1.3-1.36 2.58-1.87 3.96-.11.29-.4.69.01.88a12.7 12.7 0 0 0 4.26 1.09l-1.49-6.9c-.54.18-.64.56-.92.97m25.63-24.08c-.89.08-1.79.13-2.67.24-.37.04-.89 0-.96.52-.08.58-.1 1.22.35 1.69.43.45.88.05 1.28-.12 2.2-.93 4.39-1.88 6.7-2.51.93-.25 1.86-.48 2.78-.77.28-.09.79-.06.65-.76-2.66.61-5.26 1.38-8.13 1.71m-38 7.67c-.46-.56-.51-.04-.58.24-.47 2.15-.66 4.33-.64 6.6.55-1.75 1.02-3.43 1.62-5.08.25-.69.22-1.2-.4-1.77z"/></g><defs ><path id="B" d="M513.91 138.64c0-13.08 6.78-20.87 17.37-20.87s16.82 7.94 16.82 19.62v2.1h-29.52v1.95c0 8.33 4.83 14.17 13.01 14.17 5.69 0 9.89-2.8 12.07-8.02l3.27 2.18c-2.49 5.84-8.02 9.73-15.57 9.73-10.67 0-17.44-7.79-17.44-20.87zm4.67-2.96v.39h24.69v-.62c0-8.41-4.83-13.94-11.99-13.94-7.71 0-12.69 5.76-12.69 14.17z"/></defs></svg>