<svg xmlns="http://www.w3.org/2000/svg" id="Layer_2" data-name="Layer 2" viewBox="0 0 106.99 100.04"><defs><style>.cls-1{fill:#c4b391}.cls-2{fill:#e3d7bd}.cls-3{fill:#f8edd6}</style></defs><g id="Layer_1-2" data-name="Layer 1"><path d="M61.8 28.11c.13 8.94-1.51 2.98-2.36 7.69-.57 3.15-.04 3.25.14 5.39-.68 2.52-1.6.28-2.21 2.23-.41 1.31-.84 8.02-.93 8.08-.51.35-.66-5.81-1.4-4.12-.07.15-.32 4.79-.71 2.54-.06-.33.32-4.1.4-5.09-.22-3.31-.99-.58-1.19-2.35-.08-.75.01-2.49-.02-2.73.42-.89.8-1.59 1.24-2.06.25-.27.45 2.59.38-2.3-.41.35-1.71-.74-1.61 4.36-.14-1.06-1.19-.56-1.32-5.92-1.33 3.59-2.71 7.13-4.12 4.48l1.19 5.21-.18 6.43c-.8 2.03.12-6.43-.5-4.38-.43 1.42-.51 7.69-.1 10.18-.71 2.08-.84-2.75-.89-2.73-.22.08-.59 2.11-.92 1.27-.02-2.78.45.06.41-3.53-.05-4.98-.53-4.95-.57-5.46-.05-.64.45-3.25-.14-2.63-.78 2.44-.24 11.2-.3 11.62-.05.3-.43-.58-.56.26s-.19 6.81-.45 8.48c-.06-.11-.14.11-.2 0 .13-5.21-.84-.24-.61-7.27-.32-.42-.29 3.6-.4 5.81C29.32 36.88 14.65 31.24.3 65.93c2.78-15.87 6.44-27.43 9.78-36.39 18.7-50.17 33.01-26.55 51.73-1.43Zm-6.45 4.38c-.28-1.05-.54.92-.4 1.43.28 1.05.54-.92.4-1.43Z" class="cls-3"/><path d="M77.94 42.66c7.5 2.39 15.84-1.21 22.98-19.68 2.09-5.4 4-13.7 6.05-19.61.09 2.74-.21 3.45-.4 5.09-4.09 35.72-10.46 56.4-16.33 70.58.25-3.81-.41-4.74-.4-5.03.1-3.77.5-7.05.19-12.44-.56 3-1.11 4.19-1.81 3.62l.6 4.38c-.75.9-.66.89-.61 6.55-.55-6.5-1.14 4.23-1.61 1.45-.42-2.47.39-2.87.41-3.64.08-3.59-.33-1.08-.41-3.63.09-.25.37.33.4 0 .15-1.49.03-5.98-.4-4.35.02 1.38-.04 3.14 0 4.36-.29.85-1.55 3.96-1.61 4.38-.73 4.81 1.16 1.08 1.21 1.45.09 2.27-.22 4.82-.21 6.45 0 .68.75 1.09.41 3.71-.13 1.03-1.26 3.21-1.01-1.42h-.2c.09 1.69-.6 4.99-.81 5.81-3.16 12.26-13.84 9.85-17.64 7.27-3.34-2.27-6.54-7.93-9.78-13.09l.2-8.72h-1.01c-.24-3.72.4-2.47.42-3.79.06-4.88-.86-9.06.59-7.88-.04-1.51-.79-3.26-.4-5.8.04-.24.86-.28.97.23.66 2.91-.47 9.41-.47 12.83l1.31-5.07-.4-2.16c.87-2.76.49.72.61 1.33.4 2.06.37-1.89.54-2.79.27-1.41.76-2.34.86-2.92.03-.19-.07-3.12.09-2.86 1.5 2.43 1.66 8.24-.09 2.86-.1 9.37 1.01 4.39 1.82 4.36-.64-8.99.72-7.09 1.61-5.79l-1.01 2.91c-.06 2.85.48.79.61 1.45.04.22-.19 6.92-.2 7.26-.15 2.87-.6 1.89-.6 4.35.79-1.47.96 4.04 1.02 4.29.18.78.65-2.33 1-2.82.51-.71 1.03 4.04 1.01-4.37v-2.91c.46.07 1.16.64 1.61 1.46v-4.36c-.03-.28-1.5 3.21-.81-1.44.28-1.91 1.34.27 1.4-.02.33-1.68.3-16.01-.59-10.18-.24-5.86.85-5.12 1.41-8.73.25 3.49-1 4.45-.6 7.27.06.43.72-4.09.8 2.91-.7 1.37-.26 1.82-.6 7.26.54 1.35.63-5.07.6-7.26.95-1.84 1.32-.55 2.22 1.44.08-.56-.52-5.16.31-5.83.06-.05.06 2.36.25 2.83.15.39 1.09 2.44 1.2 2.57.26.33.54-1.31.75-1.15.23.17-.02 3.69.32 3.03V47.01c.45 1.16 1.08 1.92 1.52.05l-1.11 5.77c.49-.11 1.1 1.58 1.01-2.88h.2c-.11 2.51.11 3.13.2 4.35-.21-1.55.18-4.52.4-2.9s-.19 4.45-.4 2.9c.28 3.51.51 4 .2 8.72 1.75.35.39-4.56.39-5.17-.02-6.39.71-4.32 1.18-6 .21-.75.2-2.24.32-2.92.34-1.93.8 2.25.33-6.28Zm17.54-.01c.14-2.04-.13-3.88-.2-2.9-.14 2.04.13 3.88.2 2.9Zm-.71.01v1.46c.13-.49.13-.97 0-1.46Zm.91 4.35c-.07-2.1-.33-3.34-.6-2.89v2.9h.6Zm-23.69 10.2v1.46c.13-.49.13-.97 0-1.46Zm.3 2.92-.6.71c.18 1.54.31 2.65.6 2.18v-2.9Zm18.55.01h-.6v2.89c.28.45.54-.78.6-2.89ZM60.59 73.22c-.03-1.14.08-3.44-.02-4.17-.16-1.19-1.96-2.93-1.79 2.71.63-.39 1.16-3.07 1.61 1.46l-.1 7.25c1.2-5.51.45-2.08.3-7.25Zm-3.63 1.45c.14-2.04-.13-3.88-.2-2.9-.14 2.04.13 3.88.2 2.9Zm1.52-2.9v1.46c.13-.49.13-.97 0-1.46Zm1.51 1.47c-.28-1.05-.54.92-.4 1.43.28 1.05.54-.92.4-1.43Zm25.41 7.28c-.26-1.94-1.48-1.39-1.81.7.39 2.2 1.03 1.4 1.55 1.84.4.34.44-1.23.26-2.54Z" class="cls-2"/><path d="M51.32 74.68c0-.22.19-.66.21-1.43l-.61-.75c.47-5.57 1.1-1.75 1.81-3.63l-.2 8.72c-.2-.41-1.27-.06-1.21-2.91Z" class="cls-3"/><path d="M43.86 61.58c.11-2.21.09-6.23.4-5.81-.24 7.03.73 2.06.61 7.27-.29-.51-.64-.83-1.01-1.46Z" class="cls-2"/><path d="M0 65.94c.13.49.13.97 0 1.46v-1.46Z" class="cls-3"/><path d="M77.94 42.66c.47 8.54 0 4.35-.33 6.28-.12.67-.11 2.17-.32 2.92-.47 1.68-1.2-.39-1.18 6 0 .61 1.36 5.52-.39 5.17.3-4.72.07-5.21-.2-8.72.21 1.55.63-1.28.4-2.9s-.62 1.36-.4 2.9c-.1-1.22-.31-1.84-.2-4.36h-.2c.09 4.47-.52 2.78-1.01 2.89l1.11-5.77c-.43 1.87-1.07 1.11-1.51-.05v11.65c-.35.66-.09-2.86-.33-3.03-.21-.16-.49 1.49-.75 1.15-.11-.14-1.05-2.19-1.2-2.57-.18-.47-.19-2.88-.25-2.83-.83.67-.22 5.27-.31 5.83-.9-2-1.27-3.29-2.22-1.44.03 2.19-.07 8.61-.6 7.26.35-5.44-.1-5.9.6-7.26-.08-7.01-.74-2.49-.8-2.91-.4-2.82.85-3.78.6-7.27-.56 3.61-1.64 2.87-1.41 8.73.89-5.83.93 8.5.59 10.18-.06.29-1.12-1.89-1.4.02-.69 4.66.77 1.17.81 1.44v4.36c-.46-.81-1.15-1.38-1.61-1.46-.61-.1-2.03-1.75-1.81 2.91-.07-.03-.14.08-.2 0-.04-.05-.21-1.98-.4-1.46.02-.35.25-7.04.2-7.26-.12-.66-.67 1.4-.61-1.45l1.01-2.91c-.89-1.3-2.25-3.2-1.61 5.79-.81.03-1.91 5.01-1.82-4.36 1.75 5.38 1.59-.43.09-2.86-.16-.26-.06 2.67-.09 2.86-.1.58-.59 1.51-.86 2.92-.17.9-.13 4.85-.54 2.79-.12-.6.25-4.08-.61-1.33l.4 2.16-1.31 5.07c0-3.42 1.13-9.91.47-12.83-.12-.51-.94-.47-.97-.23-.38 2.54.37 4.29.4 5.8-1.45-1.18-.52 2.99-.59 7.88-.02 1.31-.66.06-.42 3.77h1.01l-.2 8.74c-1.49-2.37-2.94-4.22-4.44-7.28l.2-8.72c-.71 1.89-1.35-1.94-1.81 3.63l.61.75c-.02.77-.2 1.21-.21 1.43-1.89-1.36-3.84-5.73-5.71-9.09-.29-.52-.5-2.47-.54-2.55.26-1.67.32-7.66.45-8.48s.51.05.56-.26c.07-.42-.47-9.19.3-11.62.59-.62.09 2 .14 2.63.04.51.52.48.57 5.46.04 3.59-.43.75-.41 3.53.33.84.7-1.2.92-1.27.06-.02.19 4.81.89 2.73-.41-2.49-.32-8.77.1-10.18.62-2.05-.3 6.41.5 4.38l.18-6.43-1.19-5.21c1.41 2.66 2.79-.89 4.12-4.48.14 5.36 1.18 4.86 1.32 5.92-.09-5.1 1.21-4.01 1.61-4.36.08 4.89-.13 2.03-.38 2.3-.43.47-.82 1.18-1.24 2.06.03.24-.06 1.98.02 2.73.19 1.77.97-.96 1.19 2.35-.08.99-.46 4.76-.4 5.09.39 2.25.64-2.39.71-2.54.73-1.69.89 4.47 1.4 4.12.09-.06.52-6.78.93-8.08.61-1.95 1.53.29 2.21-2.23-.18-2.14-.71-2.25-.14-5.39.85-4.7 2.49 1.25 2.36-7.69 5.33 7.16 10.71 12.83 16.13 14.55ZM61 36.85h-.4v4.35h.4v-4.35Zm-8.67 7.25c-.3-8.27-1.44-6.96-1.21 1.46l1.21-1.46Zm-.2 7.29c.19.45.86 1.47 1.01.77.62-2.84-.48-14.77-.41-3.67-.57-1.8-.62-.83-1.01 0-.36.78-.74 1.19-.6 4.36.2 0 .4.05.6 0 .07-.01.14.07.2 0 .09-.1.17-.82.2-1.46Zm8.46-7.27h-1.21v2.9h1.21v-2.9Zm15.03 1.45v1.46c.13-.49.13-.97 0-1.46ZM61.2 47.04c-.28-1.05-.54.92-.4 1.43.28 1.05.54-.92.4-1.43Zm5.24 5.8c.14-2.04-.13-3.88-.2-2.9-.14 2.04.13 3.88.2 2.9Zm-6.45.02c-.28-1.05-.54.92-.4 1.43.28 1.05.54-.92.4-1.43Zm-8.47 2.92c-.04-.27-.54-.87-.68-1.5l-.33 3.67c.1-.12 1.51 1.61 1-2.17Zm14.12-1.46-1.61 8.7c.6 1.4.88.27 1.41-1.46l-.4-2.16.6-5.09Zm-13.01 1.47-.3 2.17c0 1.53.5-.86.3-2.17Zm13.31 5.79v1.46c.13-.49.13-.97 0-1.46Z" class="cls-2"/><path d="M55.35 32.49c.14.51-.12 2.47-.4 1.43-.14-.51.12-2.47.4-1.43Z" class="cls-2"/><path d="M63.62 71.77c.6.31 1.21-.22 1.81 0 .02 8.41-.5 3.65-1.01 4.37l.2-2.9c-.12-.61-.6 1.43-.81 1.44-.02 0-.05-1.76-.2-1.46v2.92c-.33-.44-.63-3.74-.2-4.37.06.08.14-.03.2 0Z" class="cls-3"/><path d="M60.39 73.22c-.45-4.53-.99-1.86-1.61-1.46-.17-5.64 1.63-3.89 1.79-2.71.1.73 0 3.03.02 4.17h-.2Z" class="cls-2"/><path d="M65.43 68.85v2.91c-.6-.22-1.22.31-1.81 0-.22-4.66 1.2-3.01 1.81-2.91ZM85.4 80.52c.18 1.31.14 2.87-.26 2.54-.52-.44-1.16.36-1.55-1.84.33-2.08 1.55-2.64 1.81-.7Z" class="cls-1"/><path d="M63.42 71.77c-.43.62-.12 3.93.2 4.37.14.19.22-.42.2-1.46.21 0 .69-2.06.81-1.44l-.2 2.9c-.35.48-.82 3.6-1 2.82-.06-.25-.23-5.75-1.02-4.29 0-2.46.45-1.48.6-4.35.19-.52.36 1.4.4 1.46Z" class="cls-1"/><path d="M60.59 73.22c.14 5.17.89 1.74-.3 7.25l.1-7.25h.2Z" class="cls-3"/><path d="M86.61 70.31c.08 2.55.49.05.41 3.63-.02.77-.83 1.17-.41 3.64.47 2.78 1.06-7.95 1.61-1.45-.05-5.66-.14-5.65.61-6.55l-.6-4.38c.7.57 1.25-.62 1.81-3.62.3 5.39-.1 8.67-.19 12.44 0 .28.65 1.22.4 5.03-.2.48-.42 2.32-.7 2.94-1.66 3.77-3.38 8.63-5.15 8.7.21-.82.9-4.12.81-5.8h.2c-.25 4.63.88 2.44 1.01 1.42.34-2.62-.41-3.03-.41-3.71 0-1.62.31-4.17.21-6.45-.05-.36-1.94 3.36-1.21-1.45.06-.42 1.32-3.53 1.61-4.38-.04-1.22.02-2.98 0-4.36.43-1.63.55 2.86.4 4.35-.03.34-.32-.25-.4 0ZM95.68 47.01h-.6v-2.89c.28-.45.54.78.6 2.89Z" class="cls-1"/><path d="M72.29 60.13v2.9c-.3.47-.42-.64-.6-2.18l.6-.71Z" class="cls-2"/><path d="M90.84 60.14c-.07 2.1-.33 3.34-.6 2.89v-2.9h.6ZM95.48 42.65c-.07.99-.34-.85-.2-2.9.07-.99.34.85.2 2.9Z" class="cls-1"/><path d="M56.96 74.67c-.07.99-.34-.85-.2-2.9.07-.99.34.85.2 2.9Z" class="cls-2"/><path d="M59.99 73.24c.14.51-.12 2.47-.4 1.43-.14-.51.12-2.47.4-1.43Z" class="cls-3"/><path d="M94.77 42.66c.13.49.13.97 0 1.46v-1.46Z" class="cls-1"/><path d="M58.48 71.77c.13.49.13.97 0 1.46v-1.46ZM71.99 57.21c.13.49.13.97 0 1.46v-1.46Z" class="cls-2"/><path d="M51.72 48.48c.38-.83.44-1.79 1.01 0-.07-11.09 1.03.83.41 3.67-.15.7-.82-.32-1.01-.77-.02-.04-.03-1.81-.2-1.45v2.91c-.07.07-.14-.01-.2 0v-4.37ZM52.33 44.1l-1.21 1.46c-.23-8.42.91-9.74 1.21-1.46Z" class="cls-3"/><path d="m65.64 54.32-.6 5.09.4 2.16c-.53 1.73-.81 2.86-1.41 1.46l1.61-8.7Z" class="cls-2"/><path d="M59.39 44.12h1.21v2.9h-1.21zM51.52 55.78c.5 3.79-.9 2.05-1 2.17l.33-3.67c.14.63.64 1.23.68 1.5ZM51.72 52.85c-.2.04-.4-.01-.6 0-.13-3.17.24-3.58.6-4.36v4.37ZM60.6 36.85h.4v4.35h-.4zM59.99 52.86c.14.51-.12 2.47-.4 1.43-.14-.51.12-2.47.4-1.43ZM61.2 47.04c.14.51-.12 2.47-.4 1.43-.14-.51.12-2.47.4-1.43ZM52.13 51.39c-.03.64-.11 1.36-.2 1.46v-2.91c.17-.36.18 1.41.2 1.45Z" class="cls-3"/><path d="M66.44 52.84c-.07.99-.34-.85-.2-2.9.07-.99.34.85.2 2.9Z" class="cls-2"/><path d="M52.63 55.79c.2 1.3-.3 3.69-.3 2.17l.3-2.17Z" class="cls-3"/><path d="M65.94 61.58c.13.49.13.97 0 1.46v-1.46ZM75.62 45.57c.13.49.13.97 0 1.46v-1.46ZM63.82 74.68c.02 1.04-.06 1.65-.2 1.46v-2.92c.15-.3.18 1.46.2 1.46Z" class="cls-2"/></g></svg>