<svg xmlns="http://www.w3.org/2000/svg" id="Layer_2" data-name="Layer 2" viewBox="0 0 394.63 168.02"><defs><style>.cls-1{fill:#c4b391}.cls-2{fill:#e3d7bd}.cls-3{fill:#f8edd6}</style></defs><g id="Layer_1-2" data-name="Layer 1"><path d="M226.99 131.66c.49 4.52-5.51 1.51-8.61 3.89-2.07 1.59-.13 1.64.52 2.73-2.47 1.27-5.83.14-8.07 1.13-1.5.66-3.07 4.06-3.38 4.09-1.85.18-2.42-2.94-5.09-2.08-.24.08-1.16 2.42-2.57 1.28-.21-.17 1.17-2.07 1.45-2.57-.8-1.67-3.62-.3-4.33-1.19-.3-.38.05-1.26-.07-1.38 1.52-.45 2.93-.8 4.51-1.04.9-.14 1.65 1.31 1.37-1.16-1.48.18-6.22-.38-5.88 2.2-.52-.54-4.33-.28-4.83-2.99-4.87 1.81-9.9 3.61-15.03 2.26l4.33 2.63-.66 3.25c-2.9 1.03.42-3.25-1.82-2.21-1.55.72-1.86 3.89-.38 5.15-2.58 1.05-3.06-1.39-3.26-1.38-.82.04-2.14 1.07-3.35.64-.08-1.41 1.63.03 1.49-1.78-.19-2.52-1.94-2.5-2.09-2.76-.18-.32 1.64-1.64-.51-1.33-2.84 1.23-.87 5.66-1.11 5.88-.17.15-1.55-.29-2.03.13s-.7 3.44-1.65 4.29c-.23-.06-.5.06-.74 0 .47-2.63-3.07-.12-2.21-3.67-1.15-.21-1.07 1.82-1.46 2.94-53.02-12.48-106.55-15.33-158.88 2.2 10.15-8.02 23.48-13.87 35.66-18.39 68.23-25.36 120.4-13.42 188.68-.72Zm-23.54 2.22c-1.03-.53-1.96.47-1.46.72 1.03.53 1.96-.47 1.46-.72Z" class="cls-3"/><path d="M285.84 139.02c27.36 1.21 57.78-.61 83.84-9.94 7.62-2.73 14.59-6.92 22.08-9.91.32 1.38-.78 1.74-1.47 2.57-14.92 18.06-38.16 28.5-59.58 35.67.92-1.93-1.48-2.4-1.45-2.54.35-1.9 1.81-3.56.71-6.29-2.03 1.52-4.06 2.12-6.6 1.83l2.2 2.21c-2.73.45-2.41.45-2.22 3.31-2.02-3.28-4.14 2.14-5.87.73-1.53-1.25 1.42-1.45 1.48-1.84.29-1.81-1.19-.55-1.48-1.84.32-.13 1.35.17 1.47 0 .55-.75.11-3.02-1.47-2.2.08.7-.15 1.58 0 2.2-1.07.43-5.65 2-5.89 2.21-2.66 2.43 4.23.55 4.41.73.34 1.15-.8 2.44-.77 3.26.01.34 2.74.55 1.51 1.88-.48.52-4.6 1.62-3.68-.72h-.71c.33.86-2.18 2.52-2.95 2.94-11.52 6.2-50.47 4.98-64.35 3.67-12.18-1.15-23.84-4.01-35.68-6.61l.74-4.41h-3.68c-.88-1.88 1.47-1.25 1.53-1.91.23-2.47-3.14-4.58 2.14-3.98-.14-.76-2.87-1.65-1.47-2.93.13-.12 3.13-.14 3.56.12 2.4 1.47-1.7 4.76-1.72 6.48l4.79-2.56-1.46-1.09c3.16-1.39 1.81.36 2.24.67 1.48 1.04 1.34-.96 1.97-1.41.99-.71 2.78-1.18 3.15-1.48.12-.09-.26-1.58.33-1.45 5.46 1.23 6.06 4.16-.33 1.45-.36 4.74 3.67 2.22 6.62 2.2-2.33-4.55 2.64-3.59 5.88-2.93l-3.67 1.47c-.23 1.44 1.77.4 2.21.73.15.11-.68 3.5-.74 3.67-.55 1.45-2.2.95-2.2 2.2 2.89-.74 3.52 2.04 3.72 2.17.64.39 2.37-1.18 3.63-1.42 1.86-.36 3.75 2.04 3.68-2.21v-1.47c1.68.04 4.22.32 5.88.74v-2.21c-.12-.14-5.46 1.62-2.94-.73 1.04-.97 4.9.14 5.11-.01 1.21-.85 1.09-8.09-2.16-5.15-.86-2.96 3.11-2.59 5.13-4.41.92 1.76-3.65 2.25-2.19 3.68.22.22 2.64-2.07 2.94 1.47-2.56.69-.94.92-2.21 3.67 1.96.68 2.3-2.56 2.21-3.67 3.45-.93 4.82-.28 8.09.73.3-.28-1.91-2.61 1.12-2.95.21-.02.23 1.19.89 1.43.54.19 3.98 1.23 4.37 1.3.95.17 1.96-.66 2.74-.58.85.09-.07 1.87 1.17 1.53l.02-5.89c1.62.59 3.94.97 5.51.03l-4.05 2.92c1.77-.05 4.02.8 3.68-1.46h.72c-.38 1.27.39 1.58.74 2.2-.78-.78.65-2.29 1.47-1.47s-.69 2.25-1.47 1.47c1.01 1.78 1.85 2.02.74 4.41 6.37.18 1.42-2.3 1.41-2.61-.07-3.23 2.6-2.18 4.3-3.03.76-.38.74-1.13 1.17-1.47 1.23-.98 2.9 1.14 1.2-3.17Zm63.98 0c.53-1.03-.47-1.96-.72-1.46-.53 1.03.47 1.96.72 1.46Zm-2.56 0v.74c.48-.25.48-.49 0-.74Zm3.3 2.2c-.25-1.06-1.19-1.69-2.2-1.46v1.46h2.2Zm-86.42 5.16v.74c.48-.25.48-.49 0-.74Zm1.1 1.47-2.2.36c.67.78 1.12 1.34 2.2 1.1v-1.46Zm67.67 0h-2.2v1.46c1.01.23 1.96-.4 2.2-1.46Zm-110.33 6.62c-.11-.57.28-1.74-.08-2.11-.59-.6-7.16-1.48-6.53 1.37 2.28-.2 4.23-1.55 5.88.74l-.38 3.66c4.36-2.78 1.63-1.05 1.11-3.66Zm-13.25.73c.53-1.03-.47-1.96-.72-1.46-.53 1.03.47 1.96.72 1.46Zm5.53-1.47v.74c.48-.25.48-.49 0-.74Zm5.51.74c-1.03-.53-1.96.47-1.46.72 1.03.53 1.96-.47 1.46-.72Zm92.68 3.69c-.95-.98-5.4-.7-6.61.35 1.44 1.11 3.77.71 5.67.93 1.47.17 1.59-.62.95-1.28Z" class="cls-2"/><path d="M177.71 72.09c-2.4.26-5.18-1.37-6.95-1.51-5.26-.44-9.55 1.56-14.38-.69-3.64-12.72-10.7-25.53-14.72-38.25-1.61.83-2.33 3.09-3.06 4.65-4.11 8.79-9.17 21.47-12.38 30.65l-1.48 1.46c-4.69-1.58-3.18.33-3.68.73-1.56 1.26-1.3-1.78-2.64-2.85-2.91-2.34-2.36.53-2.51.65-1.75 1.35-1.24-1.46-1.61-1.99-.72-1.03-3.54-1.33-4.26.17s2.3.93 1.45 1.81c-.11.12-2.43 1.77-2.9 1.45L106.35 64c7.93-19.92 15.17-40.14 23.64-59.85.76-1.21 1.91-1.68 3.26-1.89 2.31-.36 9.92-.8 12.34-.73 2.68.08 6.99 1.09 7.75 4.08 8.49 21.99 16.14 44.53 24.36 66.48Z" class="cls-3"/><path d="M322.61 58.11c0 12.7-.59 25.69.74 38.25h16.55c10.16 0 24.46-10.02 29.79-18.39l16.92 8.83c-11.58 20.58-30.28 27.38-53.33 28.68-5.44.31-24.94.91-29.11-.32-2.06-.61-2.03-3.3-2.17-5.16-1.21-15.76.29-32.48.76-48.2h.74c6.45-1 12.92-1.6 19.12-3.68Z" class="cls-1"/><path d="M25.45 40.46c-.16-.03-3.06.03-3.22.08-1.02.3-1.11 3.29-4.14 2.13-.65 2.33 1.47.96 2.07 1.61.35.38-.04 1.57.26 1.9.36.39 4.05.63 5.03.91-.74 2.27-6.15 3.54-6.59 5.56-.35 1.6 6.04 3.54 5.85 6.2-.68.86-.51 3.94-2.53.66-.43-.69-.35-2.05-.42-2.13-.81-.83-2.05 2.18-3.67 1.47C8.42 53.14 2.37 47.73 1.26 35.59c-4.15-45.61 78.54-47.22 80.11-5.76.07 1.73-.01 3.93-1.53 5.07-2.06 1.55-13.59 1.62-16.18.81-4.8-1.49-2.08-9.43-8.54-13.53-12.82-8.12-42.64-1.7-29.67 18.27Zm-6.98 5.15v.74c.48-.25.48-.49 0-.74Z" class="cls-2"/><path d="M201.98 65.47c-.21-18.54-2.64-39.93-.73-58.47.12-1.12.44-3.21 1.12-4.03 2.07-2.47 16.71-1.92 19.27.19 12.19 17.81 23.46 36.33 35.51 54.22-3.63.33-9.34-.87-12.75 0-.54.14-.48 1.26-.65 1.34-.94.46-2.41-1.83-2.06.86-1.08.38-.55-2.87-2.18-1.46-.3.26-.19 2.61-2.22 2.2-.07-.1-1.32-.08-2.1-1.17-4.44-6.19-8.03-13.12-13.33-18.69-.03 6.86.01 13.74 0 20.6L202 65.47Z" class="cls-3"/><path d="M103.42 72.09c2.99 2.92.09 2.04 0 2.21-.74 1.49 3.03 2.12 4.04 3.66.48-7.09 1.86-2.15 2.17-2.19.42-.06 1.53-.96 2.59-1.12 2.63-.38 8.33-1.12 10.72-.99 3.03.17 11.67 2.33 16.05 2.93 1.24.17 7.89 2.89 5.6-.08h2.22l-.74 1.46c3.05-.51 6.7 1.35 9.21 1.55 1.3.1 2.22-.67 2.98-.73.21-.02.2 2.31 3.51 1.39.59-.16.42-1.51.85-1.5 1.07.03 1.77 1.3 2.98 1.51 1.49.25 4.56-.93 4.72-.75.29.31-.36 3.19 2.7 3.48.43.04 2.37-.46 2.46-.55 1.46-1.59-1.85-1.14-1.46-2.19h7.35c2.81 7.54 9.94 22.88 10.9 29.98.25 1.82-.05 3.72-2.01 4.26-2.98.82-16.11.67-18.28-1.33-2.72-2.51-5.4-17.85-8.23-21.36-.86-1.07-2.1-1.12-3.34-1.25-13.03-1.39-28.52.94-41.82.12-2.05.7-4.17 9.35-5.27 11.65-1.97 4.12-2.93 4.3-7.43 5.07-3.08.53-11.78 1.66-14.55 1.51-.85-.05-1.76-.59-2.63-.74-1.12-1.6 12.9-31.54 14.68-36Zm66.2 8.83h-1.47l.74 2.2h.72v-2.2Z" class="cls-1"/><path d="M378.52 19.13c-3.8 3.99 1.41 3.89 2.19 7.73l-3.65.72 6.62 2.22c.01.49-3.6 1.54-2.97 3.68.12.4 1.96.12 1.48 1.46-.79 2.22-4.72.83-3.67 4.05 1.46.87 5.39-1.99 5.88-1.47.13.14-.2 1.11.04 1.61.3.64 2.57.8 1.43 2.07-.11.12-3.07 0-3.23-.03-.55-.07-.45-1.46-.83-1.49-1.25-.09-3.17 1.68-4.03 2.63l2.19 2.55c-1.89-.43-1.32 2-2.16 2.6-1 .71-3.27.14-4.45 1.09-1.01-4.54-5.58-12.36-8.81-15.83-10.06-10.81-27.65-12.77-41.52-10.73-.85.6-.41 11.34-.43 13.32-3.43.33-9.37 2.51-6.62 6.61-4.6 1.08-1.42-2.62-4.82-2.24-1.85.21-1.06 2.72-3.63 2.28-.89-1.23-2.21-3.2-1.91-4.73 5.86-1.81 1.99-4.86-1.69-1.99-1.05.81-.27 5.49-.43 7.12-.09.94-.76 1.68-.76 1.78-.42-1.31-.69-2.62-.76-4.01-.51-9.32-.83-24.06 0-33.17.14-1.54.27-4.05 1.99-4.63 24.42.12 53.02-3.7 72.74 13.82 1.29 1.14 1.54 2.72 1.8 2.97Zm-3.31 2.94v.74c.48-.25.48-.49 0-.74Zm-54.81 1.48c-2.06-.99-3.19.28-5.14.74l2.21.73-.74 2.93 3.67-4.4Zm-6.08 10.49c-.4-.42-2.43-1.28-2.73-.94-.09 2.05.81 2.56-1.08 2.98-3.76.85 2.08 3.16 4.05 1.84 1.17-.92.61-2.98-.24-3.88ZM373 43.4v.74c.48-.25.48-.49 0-.74Zm4.04 0c-.8-.8-2.27.66-1.46 1.46s2.27-.66 1.46-1.46Z" class="cls-2"/><path d="M64.44 80.91c6.4 1.8 13.39-.25 19.86-.74 5.57 45.74-76.71 50.51-83.77 9.85-2.19-12.61 2.31-13.28 14.25-12.04 7.42.76 4.46 5.96 6.86 11.53 5.77 13.41 36.79 12.8 41.67-.52.75-2.06 1.61-6 1.12-8.07ZM241.7 67.67l4.41 2.23-.74 1.44c2.73 1.22 3.8-1.32 4.03-1.34 1.81-.14 3.36-.53 4.57-.61 3.16-.21 7.49 1.81 9.8-1.72.86 1.23 3.08 3.33 4.28 4.92 1.03 1.35 1.64 4.28 3.08 2.81-.83-1.93.72-5.28.73-6.25 4.58 4.31 13-1.8 19.12 0 .03 8.45-.16 16.95-.03 25.41.06 3.88 2.57 18.02-1.21 20.06-2.86 1.54-5.04.04-7.22.14-3.62.17-7.83 2.03-11.43-.53-9.69-15.55-20.5-30.58-29.39-46.54Z" class="cls-1"/><path d="M290.99 58.85c-2.24.15-2.66 2.12-4.7 2.26-3.24.23-9.21-.42-12.45-.78-.46-.05-.76-2.37-2.71-1.48.02-18.21-.14-36.44.15-54.65.4-1.2 1.24-1.74 2.45-1.97 2.06-.39 15.06-.28 16.23.64.9.71.93 1.58 1.07 2.61 2.1 16.1-1.64 36.77-.03 53.36Z" class="cls-3"/><path d="M221.84 61.05c-.05 17.38.35 34.92-.38 52.21-.16.35-1.33 1.48-1.46 1.48h-16.92c-2.24 0-1.06-6.52-1.07-7.69-.12-13.86.12-27.74-.04-41.59l19.86-4.41Z" class="cls-1"/><path d="m391.02 77.23-6.61 1.47c-.86-5.65-1.75-3.34-3.88-3.8-1.58-.34-3.72-2.98-3.49.12-1.5-1.11-2.02-3.3-5.14-2.94.21-.55.7-1.34.74-1.47 2.75.62 3.44-1.68.74-1.47.96-5.43 1.19-15.26 0-20.6 1.18-.95 3.45-.38 4.45-1.09.84-.6.28-3.03 2.16-2.6l-2.19-2.55c.85-.95 2.78-2.71 4.03-2.63.37.03.28 1.42.83 1.49.16.02 3.12.15 3.23.03 1.13-1.27-1.13-1.43-1.43-2.07-.24-.5.09-1.47-.04-1.61-.48-.53-4.42 2.33-5.88 1.47-1.05-3.22 2.88-1.83 3.67-4.05.48-1.34-1.37-1.06-1.48-1.46-.63-2.14 2.98-3.19 2.97-3.68l-6.62-2.22 3.65-.72c-.78-3.84-5.99-3.74-2.19-7.73 16.42 16.48 19.7 35.72 12.5 58.11Zm-5.52-1.47v.74c.48-.25.48-.49 0-.74Z" class="cls-3"/><path d="M18.1 58.85c1.62.71 2.86-2.3 3.67-1.47.08.08 0 1.44.42 2.13 2.02 3.28 1.85.2 2.53-.66.1-.12.55.11.74 0 .27-.17.49-.51.74-.74.2-.03.64-.05.74 0 .67.35.43 1.88 1.84 1.49.74-.21.22-1.37.37-1.49 1.27-1 3.77 1.45 4.77 1.5.23.01.9-2.33 3.63-2.25.86.02-.61 2.82 5.58.75v2.94c2.04.6 1.12-1.28 2.39-1.72.7-.25 2.35-.27 3.5-.48 4-.72 1.75-.5 3-1.39 1.65-1.18 1.46 1.79 2.55 2.05.63.15 3.35-.91 5.13-.72s2.63 1.49 3.64 1.55c.31.02 2.4-5.58 3.34.71l1.46-1.46c0 2.03-.69 6.02 2.04 4.17.13-.08.14-2.26 1.6-1.17.63.47-.47 2.77 3.72-.07 6.37 6.37 7.72 8.55 8.83 17.65-6.47.48-13.46 2.54-19.86.74-.59-2.53-6.61-7.73-9.06-8.96-11.76-5.89-24.12-5.34-37.28-13.11Zm23.9 2.2v.74c.48-.25.48-.49 0-.74Z" class="cls-2"/><path d="M25.45 40.46c1.96.42 5.27 2.85 7.71 3.69 15.43 5.33 30.24 6.3 42.31 18.37-4.19 2.84-3.1.54-3.72.07-1.46-1.09-1.47 1.08-1.6 1.17-2.74 1.84-2.05-2.14-2.04-4.17l-1.46 1.46c-.93-6.29-3.02-.69-3.34-.71-1-.06-1.91-1.37-3.64-1.55s-4.51.87-5.13.72c-1.09-.26-.9-3.23-2.55-2.05-1.25.89.99.67-3 1.39l.74-2.2c-2.65-1.23-3.94.57-6.62 1.46-6.19 2.07-4.72-.73-5.58-.75-2.73-.08-3.41 2.27-3.63 2.25-1-.05-3.5-2.5-4.77-1.5-2.1-2.72 2.11-2.63 2.93-5.53.69-2.43-4.17-.48-5.15.92-2.11 3.03 1.8 1.56.01 4.61-.1-.05-.54-.03-.74 0-.47.07-.66.27-.74.74-.18.11-.64-.12-.74 0 .19-2.66-6.2-4.6-5.85-6.2.44-2.02 5.85-3.28 6.59-5.56-.98-.27-4.67-.51-5.03-.91-.3-.33.09-1.52-.26-1.9-.59-.65-2.72.72-2.07-1.61 3.03 1.16 3.12-1.83 4.14-2.13.15-.04 3.06-.11 3.22-.08Zm2.94 10.29v-2.2c-1.42.76-2.68.41-2.2 2.2h2.2Zm2.58-.73v.74c.48-.25.48-.49 0-.74ZM302.75 44.13c0-.1.67-.84.76-1.78.16-1.63-.62-6.31.43-7.12 3.69-2.86 7.55.18 1.69 1.99-.3 1.53 1.01 3.5 1.91 4.73 2.57.44 1.78-2.07 3.63-2.28 3.39-.38.22 3.33 4.82 2.24-2.75-4.1 3.19-6.28 6.62-6.61-.06 7.59 0 15.21 0 22.8-6.21 2.07-12.68 2.68-19.12 3.68-.43-4.47.94-9.78-.74-13.98.06-1.22-.08-2.46 0-3.68Z" class="cls-3"/><path d="M257.15 57.37c2.22 3.31 4.45 7.17 6.62 10.3-2.31 3.53-6.64 1.51-9.8 1.72-1.21.08-2.76.47-4.57.61-.23.02-1.3 2.56-4.03 1.34l.74-1.44-4.41-2.23c-2.7-1.22-3.57-6.17-4.41-7.36 2.03.4 1.93-1.94 2.22-2.2 1.63-1.41 1.11 1.84 2.18 1.46-.35-2.69 1.12-.4 2.06-.86.16-.08.1-1.2.65-1.34 3.41-.87 9.12.33 12.75 0ZM271.13 58.85c1.95-.89 2.25 1.43 2.71 1.48 3.24.36 9.21 1.01 12.45.78 2.03-.14 2.46-2.11 4.7-2.26 1.03 2.69 0 5.27 0 7.36l-.72.37.72.37v2.21c-6.12-1.8-14.55 4.31-19.12 0 .02-3.02-.74-6.74-.74-10.3ZM371.9 72.09c3.12-.36 3.64 1.83 5.14 2.94-.24-3.1 1.91-.46 3.49-.12 2.14.46 3.02-1.85 3.88 3.8l6.61-1.47c-1.61 5-2.03 5.32-4.41 9.56l-16.92-8.83c.31-.48 1.82-4.87 2.21-5.88Z" class="cls-2"/><path d="M188.74 155.2c.02-.11.7-.33.75-.72l-2.22-.38c1.7-2.82 4.01-.88 6.61-1.84l-.73 4.41c-.73-.21-4.65-.03-4.41-1.47Z" class="cls-3"/><path d="M303.49 61.79h-.74c.13-4.19-.24-9.38 0-13.98 1.68 4.2.3 9.51.74 13.98ZM161.53 148.58c.39-1.12.31-3.15 1.46-2.94-.86 3.55 2.68 1.04 2.21 3.67-1.06-.26-2.34-.42-3.68-.74Z" class="cls-2"/><path d="m290.99 66.94-.72-.37.72-.37v.74Z" class="cls-1"/><path d="M1.55 150.79c.48.25.48.49 0 .74v-.74Z" class="cls-3"/><path d="M285.84 139.02c1.7 4.31.02 2.2-1.2 3.17-.43.34-.41 1.1-1.17 1.47-1.7.85-4.37-.2-4.3 3.03 0 .31 4.96 2.79-1.41 2.61 1.11-2.39.27-2.63-.74-4.41.78.78 2.29-.65 1.47-1.47s-2.25.69-1.47 1.47c-.35-.62-1.13-.93-.74-2.2h-.72c.33 2.26-1.91 1.41-3.68 1.46l4.05-2.92c-1.58.95-3.89.56-5.51-.03l-.02 5.89c-1.25.33-.32-1.44-1.17-1.53-.78-.08-1.79.75-2.74.58-.39-.07-3.83-1.11-4.37-1.3-.67-.24-.68-1.46-.89-1.43-3.02.34-.81 2.67-1.12 2.95-3.27-1.01-4.64-1.66-8.09-.73.09 1.11-.25 4.35-2.21 3.67 1.27-2.75-.35-2.98 2.21-3.67-.3-3.54-2.72-1.26-2.94-1.47-1.46-1.43 3.12-1.91 2.19-3.68-2.03 1.83-6 1.45-5.13 4.41 3.25-2.95 3.37 4.3 2.16 5.15-.21.15-4.07-.96-5.11.01-2.53 2.35 2.82.59 2.94.73v2.21c-1.66-.41-4.2-.7-5.88-.74-2.23-.05-7.41-.88-6.62 1.47-.24-.02-.5.04-.74 0-.15-.03-.78-1-1.47-.74.07-.17.89-3.56.74-3.67-.44-.33-2.44.71-2.21-.73l3.67-1.47c-3.24-.66-8.2-1.62-5.88 2.93-2.95.02-6.98 2.53-6.62-2.2 6.39 2.72 5.79-.22.33-1.45-.59-.13-.21 1.35-.33 1.45-.36.29-2.16.76-3.15 1.48-.63.45-.49 2.45-1.97 1.41-.43-.31.92-2.06-2.24-.67l1.46 1.09-4.79 2.56c.02-1.73 4.12-5.01 1.72-6.48-.42-.26-3.42-.24-3.56-.12-1.4 1.28 1.33 2.17 1.47 2.93-5.28-.6-1.91 1.51-2.14 3.98-.06.66-2.41.03-1.53 1.91h3.68l-.74 4.42c-5.45-1.2-10.73-2.13-16.18-3.68l.73-4.41c-2.61.95-4.91-.98-6.61 1.84l2.22.38c-.06.39-.74.61-.75.72-6.9-.69-14-2.89-20.81-4.6-1.05-.26-1.83-1.25-1.99-1.29.95-.84 1.18-3.87 1.65-4.29s1.86.02 2.03-.13c.24-.21-1.73-4.64 1.11-5.88 2.15-.31.33 1.01.51 1.33.15.26 1.9.24 2.09 2.76.13 1.81-1.57.38-1.49 1.78 1.21.42 2.54-.6 3.35-.64.2 0 .68 2.43 3.26 1.38-1.49-1.26-1.18-4.43.38-5.15 2.25-1.04-1.08 3.24 1.82 2.21l.66-3.25-4.33-2.63c5.13 1.34 10.16-.45 15.03-2.26.49 2.71 4.3 2.46 4.83 2.99-.34-2.58 4.4-2.02 5.88-2.2.28 2.47-.47 1.02-1.37 1.16-1.58.24-2.99.59-4.51 1.04.12.12-.23 1 .07 1.38.7.89 3.52-.49 4.33 1.19-.29.5-1.66 2.4-1.45 2.57 1.42 1.14 2.34-1.21 2.57-1.28 2.67-.86 3.24 2.26 5.09 2.08.32-.03 1.88-3.42 3.38-4.09 2.24-.99 5.6.14 8.07-1.13-.65-1.08-2.59-1.14-.52-2.73 3.1-2.38 9.1.63 8.61-3.89 19.45 3.62 39.07 6.48 58.84 7.36Zm-61.79-2.94h-1.46v2.2h1.46v-2.2Zm-31.63 3.67c-1.1-4.18-5.24-3.52-4.41.74l4.41-.74Zm-.73 3.68c.7.23 3.12.74 3.68.39 2.27-1.44-1.74-7.46-1.48-1.86-2.07-.91-2.27-.42-3.67 0-1.32.39-2.69.6-2.2 2.2.73 0 1.47.03 2.2 0 .24 0 .5.03.74 0 .33-.05.62-.41.74-.74Zm30.89-3.67h-4.41v1.46h4.41v-1.46Zm54.8.73v.74c.48-.25.48-.49 0-.74Zm-52.6.74c-1.03-.53-1.96.47-1.46.72 1.03.53 1.96-.47 1.46-.72Zm19.12 2.94c.53-1.03-.47-1.96-.72-1.46-.53 1.03.47 1.96.72 1.46Zm-23.53.01c-1.03-.53-1.96.47-1.46.72 1.03.53 1.96-.47 1.46-.72Zm-30.89 1.47c-.13-.14-1.97-.44-2.47-.76l-1.19 1.86c.38-.06 5.5.81 3.66-1.1Zm51.49-.74-5.88 4.4c2.18.71 3.21.14 5.14-.74l-1.46-1.09 2.2-2.57Zm-47.44.74-1.1 1.1c-.01.77 1.84-.44 1.1-1.1Zm48.54 2.93v.74c.48-.25.48-.49 0-.74Z" class="cls-2"/><path d="M203.45 133.88c.5.26-.43 1.25-1.46.72-.5-.26.43-1.25 1.46-.72Z" class="cls-2"/><path d="M233.61 153.73c2.18.16 4.43-.11 6.62 0 .08 4.25-1.81 1.85-3.68 2.21l.73-1.46c-.42-.31-2.17.72-2.94.73-.07 0-.19-.89-.72-.74v1.47c-1.19-.22-2.31-1.89-.75-2.21.23.04.49-.02.74 0Z" class="cls-3"/><path d="M221.84 154.47c-1.66-2.29-3.6-.94-5.88-.74-.63-2.85 5.94-1.97 6.53-1.37.36.37-.03 1.53.08 2.11h-.74Z" class="cls-2"/><path d="M240.23 152.26v1.47c-2.19-.11-4.44.16-6.62 0-.79-2.35 4.39-1.52 6.62-1.47ZM313.05 158.16c.64.66.52 1.45-.95 1.28-1.9-.22-4.23.18-5.67-.93 1.21-1.05 5.67-1.34 6.61-.35Z" class="cls-1"/><path d="M232.88 153.73c-1.57.31-.44 1.98.74 2.21.52.1.81-.21.74-.74.77 0 2.52-1.04 2.94-.73l-.73 1.46c-1.26.24-2.99 1.82-3.63 1.42-.2-.13-.83-2.91-3.72-2.17 0-1.24 1.65-.75 2.2-2.2.69-.26 1.32.71 1.47.74Z" class="cls-1"/><path d="M222.58 154.47c.52 2.61 3.25.88-1.11 3.66l.38-3.66h.74Z" class="cls-3"/><path d="M317.47 153c.29 1.29 1.78.02 1.48 1.84-.06.39-3.01.59-1.48 1.84 1.73 1.41 3.86-4.02 5.87-.73-.19-2.86-.5-2.86 2.22-3.31l-2.2-2.21c2.54.29 4.56-.32 6.6-1.83 1.1 2.72-.36 4.38-.71 6.29-.03.14 2.37.61 1.45 2.54-.72.24-1.54 1.17-2.54 1.49-6.07 1.9-12.34 4.36-18.79 4.4.77-.41 3.28-2.08 2.95-2.93h.71c-.92 2.34 3.21 1.23 3.68.72 1.22-1.33-1.5-1.53-1.51-1.88-.03-.82 1.12-2.11.77-3.26-.18-.18-7.07 1.7-4.41-.73.23-.21 4.81-1.78 5.89-2.21-.14-.62.08-1.5 0-2.2 1.58-.82 2.01 1.45 1.47 2.2-.12.17-1.15-.12-1.47 0ZM350.56 141.22h-2.2v-1.46c1.01-.23 1.96.4 2.2 1.46Z" class="cls-1"/><path d="M265.24 147.85v1.46c-1.08.24-1.53-.32-2.2-1.1l2.2-.36Z" class="cls-2"/><path d="M332.91 147.85c-.25 1.06-1.19 1.69-2.2 1.46v-1.46h2.2ZM349.82 139.02c-.26.5-1.25-.43-.72-1.46.26-.5 1.25.43.72 1.46Z" class="cls-1"/><path d="M209.33 155.2c-.26.5-1.25-.43-.72-1.46.26-.5 1.25.43.72 1.46Z" class="cls-2"/><path d="M220.37 154.47c.5.26-.43 1.25-1.46.72-.5-.26.43-1.25 1.46-.72Z" class="cls-3"/><path d="M347.26 139.02c.48.25.48.49 0 .74v-.74Z" class="cls-1"/><path d="M214.86 153.73c.48.25.48.49 0 .74v-.74ZM264.14 146.38c.48.25.48.49 0 .74v-.74Z" class="cls-2"/><path d="M18.47 45.61c.48.25.48.49 0 .74v-.74Z" class="cls-3"/><path d="m169.62 80.92-.01 2.2-.72-.01-.74-2.19h1.47z" class="cls-2"/><path d="m106.36 63.99 2.24 4.37c.47.33 2.79-1.33 2.9-1.45.84-.89-2.18-.29-1.45-1.81s3.54-1.2 4.26-.17c.37.52-.14 3.34 1.61 1.99.15-.12-.4-2.98 2.51-.65 1.34 1.07 1.08 4.12 2.64 2.85.5-.41-1.01-2.31 3.68-.73l1.48-1.46c-.33.94-1.82 5.54-1.47 5.88h32.36c.25-.22-.54-2.28-.73-2.94 4.83 2.26 9.12.26 14.38.69 1.77.15 4.55 1.77 6.95 1.51.78 2.08 2.58 5.13 3.68 8.09h-7.35c-.38 1.06 2.92.61 1.46 2.2-.09.09-2.02.59-2.46.55-3.06-.29-2.41-3.17-2.7-3.48-.16-.17-3.23 1.01-4.72.75-1.21-.21-1.92-1.48-2.98-1.51-.43-.01-.27 1.33-.85 1.5-3.31.92-3.31-1.41-3.51-1.39-.76.06-1.67.83-2.98.73-2.51-.2-6.16-2.06-9.21-1.55l.74-1.46h-2.22c2.29 2.98-4.36.25-5.6.08-4.39-.6-13.02-2.76-16.05-2.93-2.39-.13-8.09.61-10.72.99-1.06.15-2.17 1.06-2.59 1.12-.31.04-1.68-4.9-2.17 2.19-1.01-1.54-4.78-2.16-4.04-3.66.08-.17 2.99.71 0-2.21 1.05-2.63 1.88-5.43 2.94-8.09Zm1.47 5.15c.53-1.03-.47-1.96-.72-1.46-.53 1.03.47 1.96.72 1.46Zm9.93 0v.74c.48-.25.48-.49 0-.74Zm1.48.74v.74c.48-.25.48-.49 0-.74Z" class="cls-2"/><path d="M314.32 34.04c.85.9 1.41 2.96.24 3.88-1.97 1.33-7.81-.98-4.05-1.84 1.88-.43.98-.93 1.08-2.98.31-.35 2.34.52 2.73.94ZM320.4 23.55l-3.67 4.4.74-2.93-2.21-.73c1.95-.46 3.08-1.72 5.14-.74ZM377.04 43.4c.8.8-.66 2.27-1.46 1.46s.66-2.27 1.46-1.46ZM375.21 22.07c.48.25.48.49 0 .74v-.74ZM373 43.4c.48.25.48.49 0 .74v-.74ZM190.22 141.96c1.4-.42 1.6-.9 3.67 0-.26-5.61 3.75.42 1.48 1.86-.56.35-2.98-.16-3.68-.39-.07-.02-.11-.92-.73-.73v1.47c-.24.03-.5 0-.74 0v-2.21ZM192.42 139.75l-4.41.74c-.83-4.26 3.31-4.92 4.41-.74Z" class="cls-3"/><path d="m240.97 144.91-2.2 2.57 1.46 1.09c-1.93.87-2.96 1.44-5.14.74l5.88-4.4Z" class="cls-2"/><path d="M218.17 139.76h4.41v1.46h-4.41zM189.48 145.65c1.84 1.91-3.28 1.04-3.66 1.1l1.19-1.86c.51.32 2.34.62 2.47.76ZM190.22 144.17c-.73.02-1.47 0-2.2 0-.48-1.6.88-1.81 2.2-2.2v2.21ZM222.58 136.08h1.46v2.2h-1.46zM220.37 144.18c.5.26-.43 1.25-1.46.72-.5-.26.43-1.25 1.46-.72ZM224.78 141.23c.5.26-.43 1.25-1.46.72-.5-.26.43-1.25 1.46-.72ZM191.69 143.43c-.11.32-.41.69-.74.74v-1.47c.63-.18.67.71.74.73Z" class="cls-3"/><path d="M243.9 144.17c-.26.5-1.25-.43-.72-1.46.26-.5 1.25.43.72 1.46Z" class="cls-2"/><path d="M193.53 145.65c.74.66-1.11 1.87-1.1 1.1l1.1-1.1Z" class="cls-3"/><path d="M242.07 148.58c.48.25.48.49 0 .74v-.74ZM277.38 140.49c.48.25.48.49 0 .74v-.74ZM373.37 69.14c2.71-.21 2.02 2.09-.74 1.47.11-.46.65-1.01.74-1.47ZM385.5 75.76c.48.25.48.49 0 .74v-.74ZM26.92 58.11c1.79-3.05-2.12-1.58-.01-4.61.98-1.4 5.84-3.35 5.15-.92-.82 2.9-5.03 2.81-2.93 5.53-.14.11.38 1.28-.37 1.49-1.41.4-1.17-1.13-1.84-1.49Zm2.58-4.41v.74c.48-.25.48-.49 0-.74ZM43.11 58.11c2.69-.9 3.97-2.69 6.62-1.46l-.74 2.2c-1.15.21-2.8.23-3.5.48-1.27.45-.34 2.32-2.38 1.72v-2.94ZM25.45 58.85c.08-.47.26-.66.74-.74-.25.22-.46.57-.74.74ZM42 61.05c.48.25.48.49 0 .74v-.74Z" class="cls-2"/><path d="M107.83 69.14c-.26.5-1.25-.43-.72-1.46.26-.5 1.25.43.72 1.46ZM117.76 69.14c.48.25.48.49 0 .74v-.74ZM119.24 69.88c.48.25.48.49 0 .74v-.74Z" class="cls-3"/><path d="M28.39 50.75h-2.2c-.48-1.79.78-1.44 2.2-2.2v2.2ZM30.97 50.02c.48.25.48.49 0 .74v-.74ZM234.35 155.2c.08.53-.21.83-.74.74v-1.47c.54-.15.67.74.74.74Z" class="cls-2"/><path d="M29.5 53.7c.48.25.48.49 0 .74v-.74Z" class="cls-3"/></g></svg>